<svg width="18" height="13" viewBox="0 0 18 13" fill="none" xmlns="http://www.w3.org/2000/svg">
<path fill-rule="evenodd" clip-rule="evenodd" d="M1.02029 1.41728L1.12303 1.30169C1.49958 0.907942 2.06054 0.710938 2.8054 0.710938H15.5709C16.2729 0.710938 16.8122 0.882257 17.189 1.22464L17.2019 1.23748C17.2789 1.30606 17.3562 1.38723 17.433 1.48149C17.433 1.49022 17.4374 1.4987 17.4459 1.50717L17.4587 1.52002C17.7415 1.87113 17.8825 2.36762 17.8825 3.00975V10.2786C17.8741 11.8197 17.1035 12.5903 15.5709 12.5903H2.8054C1.27278 12.5818 0.506592 11.8113 0.506592 10.2786V3.00975C0.506592 2.31625 0.677911 1.78534 1.02029 1.41728ZM15.9947 1.96951C15.8663 1.93535 15.725 1.92225 15.5711 1.93098H2.8054C2.71114 1.9225 2.62124 1.92661 2.53571 1.94382L9.14962 8.64762L15.9947 1.96951ZM1.72663 2.86848C1.71816 2.91138 1.71816 2.95838 1.72663 3.00975V10.2786C1.72663 11.0065 2.08622 11.3702 2.8054 11.3702H15.5709C16.2985 11.3702 16.6625 11.0065 16.6625 10.2786V3.02259L9.57342 9.94472C9.44499 10.0647 9.29962 10.1245 9.13703 10.1245C8.96571 10.116 8.82008 10.0559 8.70038 9.94472L1.72663 2.86848Z" fill="currentColor"/>
<path fill-rule="evenodd" clip-rule="evenodd" d="M1.02026 1.41636C1.03747 1.39068 1.05879 1.36499 1.08448 1.33931C1.09321 1.3221 1.10579 1.30926 1.123 1.30078L1.02026 1.41636Z" fill="currentColor"/>
</svg>
