<svg width="15" height="12" viewBox="0 0 15 12" fill="none" xmlns="http://www.w3.org/2000/svg">
<path d="M13.9873 6.21484L9.39355 10.8086C8.9834 11.2188 8.27246 10.9453 8.27246 10.3438V7.71875H4.55371C4.1709 7.71875 3.89746 7.44531 3.89746 7.0625V4.4375C3.89746 4.08203 4.1709 3.78125 4.55371 3.78125H8.27246V1.15625C8.27246 0.582031 8.95605 0.28125 9.39355 0.691406L13.9873 5.28516C14.2334 5.55859 14.2334 5.96875 13.9873 6.21484ZM5.64746 10.6719C5.64746 10.8633 5.4834 11 5.31934 11H3.02246C1.57324 11 0.397461 9.82422 0.397461 8.375V3.125C0.397461 1.67578 1.57324 0.5 3.02246 0.5H5.31934C5.4834 0.5 5.64746 0.664062 5.64746 0.828125V1.92188C5.64746 2.11328 5.4834 2.25 5.31934 2.25H3.02246C2.53027 2.25 2.14746 2.66016 2.14746 3.125V8.375C2.14746 8.86719 2.53027 9.25 3.02246 9.25H5.31934C5.4834 9.25 5.64746 9.41406 5.64746 9.57812V10.6719Z" fill="url(#paint0_linear_2441_44340)"/>
<defs>
<linearGradient id="paint0_linear_2441_44340" x1="0.397461" y1="-2" x2="0.397461" y2="14" gradientUnits="userSpaceOnUse">
<stop stop-color="#FF8F8F"/>
<stop offset="1" stop-color="#FFC1C1"/>
</linearGradient>
</defs>
</svg>
