<svg width="15" height="15" viewBox="0 0 15 15" fill="none" xmlns="http://www.w3.org/2000/svg">
<path d="M14.3984 5.58984C14.3984 8.24219 12.2383 10.375 9.58594 10.375C9.25781 10.375 8.95703 10.3477 8.68359 10.293L8.02734 11.0312C7.89062 11.168 7.72656 11.25 7.53516 11.25H6.52344V12.3438C6.52344 12.7266 6.22266 13 5.86719 13H4.77344V14.0938C4.77344 14.4766 4.47266 14.75 4.11719 14.75H1.05469C0.671875 14.75 0.398438 14.4766 0.398438 14.0938V11.9609C0.398438 11.7969 0.453125 11.6328 0.589844 11.4961L4.99219 7.09375C4.85547 6.60156 4.77344 6.10938 4.77344 5.5625C4.77344 2.91016 6.90625 0.777344 9.55859 0.75C12.2383 0.75 14.3984 2.91016 14.3984 5.58984ZM9.58594 4.25C9.58594 4.98828 10.1602 5.5625 10.8984 5.5625C11.6094 5.5625 12.2109 4.98828 12.2109 4.25C12.2109 3.53906 11.6094 2.9375 10.8984 2.9375C10.1602 2.9375 9.58594 3.53906 9.58594 4.25Z" fill="url(#paint0_linear_2441_44351)"/>
<defs>
<linearGradient id="paint0_linear_2441_44351" x1="0.398438" y1="0" x2="0.398438" y2="16" gradientUnits="userSpaceOnUse">
<stop stop-color="#F97FD9"/>
<stop offset="1" stop-color="#FFC1E6"/>
</linearGradient>
</defs>
</svg>
